# xmcd CD database file
#
# Track frame offsets:
#	150
#	8887
#	20398
#	45675
#	55368
#	73486
#	116886
#	127306
#	145471
#	156918
#	173453
#	188180
#	198472
#	215559
#	232036
#	242697
#	266063
#	280848
#	296503
#	318783
#
# Disc length: 4695 seconds
#
# Revision: 1
# Processed by: cddbd v1.5.2PL0 Copyright (c) Steve Scherf et al.
# Submitted via: CDex 1.81
#
DISCID=3d125514
DTITLE=Various Artist - Vanguard Records and the 1960's musical revolution - CD 1
DYEAR=2012
DGENRE=Blues/Jazz/Rock
TTITLE0=Skip James - I'm So Glad
TTITLE1=Big Bill Broonzy - Done Got Wise
TTITLE2=Mississippi John Hurt - Stagolee
TTITLE3=Golden Gate Quartet - Gospel Train
TTITLE4=Swan Silvertones - Oh Mary, Don't You Weep
TTITLE5=Reverend Robert Wilkins - The Prodigal Son
TTITLE6=Cajun Band - Bosco Stomp
TTITLE7=Otis Spann - Blues Is A Botheration
TTITLE8=J.B. Hutto and His Hawks - Too Much Alcohol
TTITLE9=Pee Wee Crayton - Blues After Hours
TTITLE10=John Hammond - I Can't Be Satisfied
TTITLE11=Koerner Ray and Glover  - What's The Matter With The Mill
TTITLE12=Dave Van Ronk - Cocaine
TTITLE13=Reverend Gary Davis - Samson and Delilah
TTITLE14=James Cotton - Cotton Crop Blues
TTITLE15=Charlie Musselwhite Blues Band - Clay's Tune
TTITLE16=Otis Rush - I Can't Quit You Babe
TTITLE17=Junior Wells - You Lied To Me
TTITLE18=Buddy Guy - Fever
TTITLE19=Big Mama Thornton - Ball and Chain
EXTD=YEAR: 2012
EXTT0=
EXTT1=
EXTT2=
EXTT3=
EXTT4=
EXTT5=
EXTT6=
EXTT7=
EXTT8=
EXTT9=
EXTT10=
EXTT11=
EXTT12=
EXTT13=
EXTT14=
EXTT15=
EXTT16=
EXTT17=
EXTT18=
EXTT19=
PLAYORDER=
